<mxfile host="app.diagrams.net" modified="2024-02-08T08:27:07.266Z" agent="Mozilla/5.0 (Windows NT 10.0; Win64; x64) AppleWebKit/537.36 (KHTML, like Gecko) Chrome/121.0.0.0 Safari/537.36" version="22.1.21" etag="KtZMbNAi8THxfGx-l9gA" type="github">
  <diagram name="Page-1" id="Q0J5vgoRxOpuG1w4QGVU">
    <mxGraphModel>
      <root>
        <mxCell id="0" />
        <mxCell id="1" parent="0" />
      </root>
    </mxGraphModel>
  </diagram>
</mxfile>
